<svg xmlns="http://www.w3.org/2000/svg" width="18" height="15" viewBox="0 0 18 15">
    <g fill="#2C2C34" fill-rule="nonzero" opacity=".5">
        <path d="M8.601 7.89H.436A.443.443 0 0 1 0 7.44c0-.248.195-.45.436-.45H8.6c.24 0 .436.202.436.45 0 .25-.195.45-.436.45zM17.535 7.89h-4.332a.443.443 0 0 1-.435-.45c0-.248.194-.45.435-.45h4.332c.24 0 .436.202.436.45 0 .25-.195.45-.436.45zM6.3 13.594H.436a.443.443 0 0 1-.436-.45c0-.249.195-.45.436-.45H6.3c.24 0 .435.201.435.45s-.195.45-.435.45zM17.535 13.594h-6.633a.443.443 0 0 1-.436-.45c0-.249.195-.45.436-.45h6.633c.24 0 .436.201.436.45s-.195.45-.436.45zM3.799 2.306H.436A.443.443 0 0 1 0 1.856c0-.249.195-.45.436-.45h3.363c.24 0 .435.201.435.45s-.195.45-.435.45zM17.535 2.306H8.401a.443.443 0 0 1-.436-.45c0-.249.195-.45.436-.45h9.134c.24 0 .436.201.436.45s-.195.45-.436.45z"/>
        <path d="M5.157 3.711c-.99 0-1.794-.832-1.794-1.855C3.363.833 4.168 0 5.157 0c.99 0 1.794.832 1.794 1.855 0 1.023-.805 1.855-1.794 1.855zm0-2.81c-.509 0-.923.429-.923.955s.414.954.923.954c.509 0 .923-.428.923-.954S5.666.902 5.157.902zM7.567 15c-.99 0-1.794-.833-1.794-1.856 0-1.023.805-1.855 1.794-1.855.99 0 1.794.832 1.794 1.855 0 1.023-.805 1.855-1.794 1.855zm0-2.81c-.509 0-.923.428-.923.954s.414.955.923.955c.51 0 .923-.429.923-.955s-.414-.954-.923-.954zM9.96 9.295c-.99 0-1.795-.832-1.795-1.855 0-1.023.805-1.855 1.794-1.855.99 0 1.794.832 1.794 1.855 0 1.023-.804 1.855-1.794 1.855zm0-2.809c-.51 0-.923.428-.923.954s.413.954.922.954c.51 0 .923-.428.923-.954s-.414-.954-.923-.954z"/>
    </g>
</svg>
