<svg xmlns="http://www.w3.org/2000/svg" xmlns:xlink="http://www.w3.org/1999/xlink" width="18" height="18" viewBox="0 0 18 18">
    <defs>
        <circle id="a" cx="9" cy="9" r="9"/>
    </defs>
    <g fill="none" fill-rule="evenodd">
        <mask id="b" fill="#fff">
            <use xlink:href="#a"/>
        </mask>
        <use fill="#D8D8D8" xlink:href="#a"/>
        <g mask="url(#b)">
            <g transform="translate(-.947 -.947)">
                <circle cx="9.943" cy="9.943" r="9.349" fill="#1D1D26" fill-opacity=".5" fill-rule="nonzero"/>
                <path fill="#E7EDFD" d="M14.316 17.872c-3.441 1.896-7.863 1.389-10.777-1.525a9.156 9.156 0 0 1-.366-.39c1.002-1.291 1.743-2.443 2.397-3.464.783-1.22 1.4-2.184 2.176-2.943a.292.292 0 0 0-.078-.473A5.847 5.847 0 0 1 6.334 8.2l-.002-.004c-.092-.08-.18-.16-.265-.242-.012-.011-.024-.02-.035-.032-.1-.1-.196-.205-.288-.312l-.074-.09a5.915 5.915 0 0 1-.447-.614l-.055-.088a5.931 5.931 0 0 1-.44-.885l.855-.854c.74.295 1.42.735 1.989 1.303.55.55.98 1.2 1.28 1.931a.292.292 0 0 0 .396.153c.52-.249 1.07-.283 1.587-.283 1.396 0 3.874 1.114 4.894 3.206.916 1.877.438 4.102-1.382 6.433a.315.315 0 0 0-.031.049z"/>
                <path fill="#E7EDFD" d="M6.804 9.269c.09.054.177.11.268.16-.059.064-.117.132-.174.198a5.395 5.395 0 0 0-.094-.358zM6.359 9.906a4.704 4.704 0 0 1-2.456-1.294 4.678 4.678 0 0 1-.912-1.297l.779-.778c.305.147.596.325.866.537.019.031.04.06.058.091l.112.175.079.116c.062.09.126.178.192.265l.052.064a6.517 6.517 0 0 0 .49.55v.001c.072.073.146.14.22.205.023.022.046.045.07.066.215.414.366.85.45 1.299z"/>
                <path fill="#2C2C34" fill-rule="nonzero" d="M13.856 11.685a.292.292 0 0 1-.293-.292.088.088 0 0 0-.088-.088.088.088 0 0 0-.087.088.292.292 0 1 1-.585 0 .673.673 0 0 1 1.345 0c0 .161-.131.292-.292.292z"/>
                <circle cx="13.037" cy="13.492" r="1.021" fill="#CDF2ED" fill-rule="nonzero"/>
                <path fill="#2C2C34" fill-rule="nonzero" d="M13.037 14.806a1.314 1.314 0 0 1 0-2.626c.724 0 1.313.589 1.313 1.312 0 .724-.59 1.314-1.313 1.314zm0-2.042a.73.73 0 1 0 .001 1.458.73.73 0 0 0-.001-1.458z"/>
                <path fill="#2C2C34" fill-rule="nonzero" d="M16.76 3.125c-3.759-3.759-9.875-3.759-13.634 0-3.559 3.56-3.746 9.23-.567 13.013a9.632 9.632 0 0 0 .567.622 9.611 9.611 0 0 0 6.817 2.82c2.469 0 4.938-.94 6.817-2.82 3.76-3.759 3.76-9.875 0-13.635zm-2.444 14.747c-3.441 1.896-7.863 1.389-10.777-1.525a9.156 9.156 0 0 1-.366-.39c1.002-1.291 1.743-2.443 2.397-3.464.783-1.22 1.4-2.184 2.176-2.943a.292.292 0 0 0-.078-.473A5.847 5.847 0 0 1 6.334 8.2l-.002-.004c-.092-.08-.18-.16-.265-.242-.012-.011-.024-.02-.035-.032-.1-.1-.196-.205-.288-.312l-.074-.09a5.915 5.915 0 0 1-.447-.614l-.055-.088a5.931 5.931 0 0 1-.44-.885l.855-.854c.74.295 1.42.735 1.989 1.303.55.55.98 1.2 1.28 1.931a.292.292 0 0 0 .396.153c.52-.249 1.07-.283 1.587-.283 1.396 0 3.874 1.114 4.894 3.206.916 1.877.438 4.102-1.382 6.433a.315.315 0 0 0-.031.049zM6.804 9.269c.084.051.168.104.254.152-.056.06-.11.124-.165.187a5.111 5.111 0 0 0-.089-.34zm-.445.637a4.704 4.704 0 0 1-2.456-1.294 4.678 4.678 0 0 1-.912-1.297l.779-.778c.305.147.596.325.866.537.019.031.04.06.058.091l.112.175.079.116c.062.09.126.178.192.265l.052.064a6.517 6.517 0 0 0 .49.55v.001c.072.073.146.14.22.205.023.022.046.045.07.066.215.414.366.85.45 1.299zm9.988 6.44c-.228.23-.466.442-.711.64 1.328-2.2 1.294-3.966.874-5.226a.757.757 0 0 0 .161-.972.757.757 0 0 0-.82-.34c-1.22-1.776-3.433-2.849-5.016-2.849-.498 0-1.027.03-1.56.224a6.398 6.398 0 0 0-1.29-1.853 6.472 6.472 0 0 0-2.363-1.503l-.01-.005c-.02-.008-.042-.013-.063-.02a6.177 6.177 0 0 0-.264-.087l-.074-.022a6.456 6.456 0 0 0-.344-.09l-.052-.011a6.353 6.353 0 0 0-.734-.121.293.293 0 0 0-.32.32h-.001v.005c.014.134.033.268.056.401.007.044.017.086.025.13.018.091.035.183.057.274.01.046.024.092.036.138.023.088.046.176.073.264.012.04.026.08.04.12.02.067.04.133.064.199.003.009.009.016.013.024l.03.09a5.425 5.425 0 0 0-.327-.153l-.006-.004-.022-.008a5.285 5.285 0 0 0-.347-.134l-.01-.003a5.207 5.207 0 0 0-.35-.106l-.033-.01a5.308 5.308 0 0 0-.346-.076l-.066-.012a5.16 5.16 0 0 0-.352-.05.294.294 0 0 0-.321.32v.004c.015.137.035.273.06.41.013.066.03.131.044.197.016.066.03.133.048.2.022.084.049.168.076.252l.043.133c.032.09.067.18.104.268.008.02.014.042.023.062l.01.016A5.27 5.27 0 0 0 3.49 9.025a5.288 5.288 0 0 0 2.724 1.447 38.65 38.65 0 0 0-1.136 1.705c-.63.983-1.341 2.088-2.288 3.318C.031 11.945.28 6.798 3.54 3.538A9.027 9.027 0 0 1 9.943.89a9.03 9.03 0 0 1 6.404 2.648c3.531 3.532 3.531 9.278 0 12.809z"/>
                <path fill="#2C2C34" fill-rule="nonzero" d="M6.33 15.156a.293.293 0 0 1-.26-.16c-.024-.046-.567-1.089-1.603-.793a.293.293 0 0 1-.16-.561c1.203-.345 2.02.563 2.285 1.091a.292.292 0 0 1-.262.423zM5.56 16.265a.293.293 0 0 1-.26-.161c-.024-.046-.569-1.088-1.604-.792a.293.293 0 0 1-.16-.563c1.206-.343 2.022.564 2.286 1.092a.292.292 0 0 1-.261.424z"/>
            </g>
        </g>
    </g>
</svg>
