<svg xmlns="http://www.w3.org/2000/svg" width="15" height="19" viewBox="0 0 15 19">
    <g fill="none" fill-rule="evenodd">
        <path fill="#1D1D26" fill-opacity=".5" d="M8.115 16.935c.05.15.078.312.078.48 0 .84-.695 1.522-1.553 1.522-.859 0-1.554-.682-1.554-1.522 0-.168.027-.33.079-.48H.015v-.742a5.317 5.317 0 0 0 1.007-1.228c1.113-1.921.464-2.986.9-6.54.392-3.185 2.831-4.097 4.083-4.358h1.271c1.25.26 3.69 1.173 4.081 4.358.437 3.556-.211 4.619.9 6.54.295.507.665.914 1.007 1.228v.742h-5.15z"/>
        <rect width="6.361" height="6.361" x=".95" y=".95" fill="#50D2C2" stroke="#FFF" stroke-width="1.9" rx="3.18" transform="translate(6.609)"/>
    </g>
</svg>
