<svg xmlns="http://www.w3.org/2000/svg" width="18" height="18" viewBox="0 0 18 18">
    <defs>
        <linearGradient id="a" x1="50%" x2="50%" y1="-2.484%" y2="89.836%">
            <stop offset="0%" stop-color="#00EFD1"/>
            <stop offset="100%" stop-color="#3AADD0"/>
        </linearGradient>
        <linearGradient id="b" x1="50.001%" x2="50.001%" y1=".78%" y2="790.683%">
            <stop offset="0%" stop-color="#00EFD1"/>
            <stop offset="100%" stop-color="#00ACEA"/>
        </linearGradient>
    </defs>
    <g fill="none" fill-rule="nonzero">
        <path fill="url(#a)" d="M7.442 9.482l-.723-.144c-.156.742-.899 1.219-1.658 1.066a1.39 1.39 0 0 1-1.07-.975l-.71.19c.124.436.39.821.755 1.098.937.705 2.281.536 3.004-.377.2-.253.337-.546.402-.858zM12.618 10.433c-.31 0-.612-.1-.857-.285a1.382 1.382 0 0 1-.497-.72l-.71.192c.124.435.39.82.755 1.097.936.705 2.281.536 3.004-.377.199-.253.337-.546.402-.858l-.723-.144a1.399 1.399 0 0 1-1.374 1.095z"/>
        <path fill="url(#a)" d="M16.667 4.176v-.72h-2.463l1.032-1.404a.36.36 0 0 0-.089-.509.38.38 0 0 0-.211-.067H13.22C11.927.828 10.467.453 8.995.453 4.032.455.01 4.383.013 9.226a8.664 8.664 0 0 0 2.631 6.196c3.508 3.424 9.194 3.424 12.702 0a8.66 8.66 0 0 0 2.63-6.203 8.548 8.548 0 0 0-1.63-5.043h.321zm.572 5.048c0 4.444-3.692 8.046-8.245 8.046a8.348 8.348 0 0 1-5.828-2.356A7.897 7.897 0 0 1 .75 9.224c0-4.436 3.705-8.046 8.25-8.046.914.003 1.821.15 2.686.437v.581h2.532l-1.032 1.415a.352.352 0 0 0 .084.498.372.372 0 0 0 .216.067h2.3l-.228.175a7.867 7.867 0 0 1 1.68 4.873z"/>
        <path fill="url(#b)" d="M15.808 1.93c.057.137.19.227.341.23h1.625v-.72h-.735l.82-.809a.367.367 0 0 0 .08-.4.377.377 0 0 0-.341-.231h-1.742v.72h.852l-.82.81a.367.367 0 0 0-.08.4z"/>
    </g>
</svg>
